<svg height="467.999988" width="582.999974" xmlns="http://www.w3.org/2000/svg" xmlns:xlink="http://www.w3.org/1999/xlink">
 <!-- Created with SVG Editor - http://github.com/mzalive/SVG Editor/ -->
 <g>
  <title>background</title>
  <rect fill="#fff" id="canvas_background" height="402" width="582" y="-1" x="-1"/>
  <g display="none" overflow="visible" y="0" x="0" height="100%" width="100%" id="canvasGrid">
   <rect fill="url(#gridpattern)" stroke-width="0" y="0" x="0" height="100%" width="100%"/>
  </g>
 </g>
 <g>
  <title>Layer 1</title>
  <image href="Cap.png" id="svg_1" height="467.999988" width="582.999974" y="-35"/>
  <path opacity="0.29" id="svg_2" d="m239.75145,290.077715c0,0 -11.18502,2.63177 -11.80016,2.63176c0.61514,0.00001 7.8525,0.00001 7.8525,3.94766c0,3.94765 0,3.94765 -0.61513,3.94765c0.61513,0 9.16838,1.31589 8.55324,1.31588c0.61514,0.00001 8.51045,-1.97382 7.89531,-1.97382c0.61514,0 -4.6484,8.55325 -5.26354,8.55324c0.61514,0.00001 5.87868,0.00001 5.26354,0c0.61514,0.00001 6.53661,-3.2897 5.92148,-3.28971c0.61513,0.00001 3.90484,-5.26353 3.28971,-5.26353c0.61513,0 4.56279,-9.86913 3.94765,-9.86913c0.61514,0 4.56279,-10.52707 4.56279,-10.52707c0,0 2.63177,-3.94766 2.01663,-3.94766c0.61514,0 1.27308,-10.52707 0.65794,-10.52707c0.61514,0 1.27308,-10.52707 1.27308,-10.52707c0,0 2.63177,-11.84296 2.01663,-11.84296c0.61514,0 13.77398,-17.1065 13.77398,-17.1065c0,0 -11.18501,-15.13266 -11.80015,-15.13267c0.61514,0.00001 -38.20345,25.65975 -38.81858,25.65975c0.61513,0 10.48426,22.37003 9.86913,22.37003c0.61513,0 -0.04281,11.84296 -0.65794,11.84295c0.61513,0.00001 -7.28017,9.2112 -7.28017,9.2112c0,0 -0.65794,10.52707 -0.65794,10.52707z" stroke-width="1.5" stroke="#000" fill="#0fffff"/>
  <path id="svg_3" stroke-opacity="null" stroke-width="1.5" stroke="#000" fill="#0fffff"/>
  <path id="svg_6" fill-opacity="null" stroke-opacity="null" stroke-width="1.5" stroke="#000" fill="#0fffff"/>
  <path opacity="0.17" id="svg_8" d="m232.56502,230.55556c2.30496,5.31915 1.95035,0.88652 2.30496,5.31915c0.35461,4.43262 -0.17731,0.3546 0.35461,4.43262c0.53191,4.07801 -0.53192,-1.77305 0.53191,4.07801c1.06383,5.85107 0.88653,-0.35461 1.06383,5.85107c0.17731,6.20567 0.53192,1.95035 0.17731,6.20567c-0.35461,4.25532 0.35461,1.06383 -0.35461,4.25532c-0.70922,3.19149 -0.70922,3.19149 -0.82743,3.13239c0.11821,0.0591 -1.12293,0.94562 -3.25058,1.12293c-2.12766,0.1773 2.12765,-0.70922 -2.12766,0.1773c-4.25532,0.88653 -6.56029,-1.59574 -4.25532,0.88653c2.30496,2.48227 1.41844,2.48227 1.41844,2.48227c0,0 5.49645,1.77305 0,1.59574c-5.49646,-0.1773 -5.49646,-0.1773 -5.61466,-0.2364c0.1182,0.0591 -3.07329,-1.89126 -4.49173,1.12293c-1.41844,3.01418 -4.43262,1.95035 -1.41844,3.01418c3.01419,1.06383 -0.53191,0.35461 3.01419,1.06383c3.5461,0.70922 3.5461,0.70922 3.42789,0.65012c0.11821,0.0591 1.71395,0.23641 1.59575,0.1773c0.1182,0.05911 1.35934,0.41372 1.24113,0.35461c0.11821,0.05911 -0.41371,1.65485 -0.41371,1.65485c0,0 0.88653,-0.88652 -1.77305,0c-2.65957,0.88653 -3.5461,-0.88652 -2.65957,0.88653c0.88652,1.77305 -2.48227,1.24113 0.88652,1.77305c3.3688,0.53191 0.35461,0 3.3688,0.53191c3.01418,0.53192 3.01418,0.53192 2.89597,0.47281c0.11821,0.05911 -0.2364,0.94563 3.3097,-0.2955c3.5461,-1.24114 1.24114,-1.24114 3.5461,-1.24114c2.30496,0 2.30496,0 2.18676,-0.0591c0.1182,0.0591 2.77778,-2.60047 1.71395,0.23641c-1.06383,2.83688 0,0.1773 -1.06383,2.83688c-1.06383,2.65957 0.1773,0.1773 -1.06383,2.65957c-1.24114,2.48227 -4.96454,2.65958 -1.24114,2.48227c3.72341,-0.1773 2.83688,5.49645 3.72341,-0.1773c0.88652,-5.67376 0.88652,-5.67376 0.76832,-5.73287c0.1182,0.05911 1.18203,-4.90543 1.06383,-4.96454c0.1182,0.05911 2.77778,-3.48699 2.65957,-3.54609c0.11821,0.0591 3.13239,-3.487 3.01419,-3.5461c0.1182,0.0591 2.06856,-5.96927 1.95035,-6.02837c0.11821,0.0591 -0.0591,-5.79196 -0.1773,-5.85107c0.1182,0.05911 -3.25059,-9.16075 -3.3688,-9.21985c0.11821,0.0591 -0.76832,-7.21041 -5.91016,-12.88417c-5.14184,-5.67375 -5.14184,-5.67375 -5.26005,-5.73286" stroke-opacity="null" stroke-width="1.5" stroke="#000" fill="#ff007f"/>
  <path id="svg_9" d="m233.45154,230.555556" opacity="0.5" fill-opacity="null" stroke-opacity="null" stroke-width="1.5" stroke="#000" fill="#0fffff"/>
  <path id="svg_12" fill-opacity="null" stroke-opacity="null" stroke-width="1.5" stroke="#000" fill="#00ff7f"/>
  <path opacity="0.41" id="svg_14" d="m426.83437,276.51992l-3.56393,7.12788l-3.98323,3.56394l-6.28931,1.46751l-5.45073,-0.83858l-5.24109,3.14465l-5.87002,0l-8.80503,1.46751l-2.09644,-2.93501l6.07967,-2.93501l2.30608,-1.67715l-8.59539,-2.72537l-3.14466,-3.14465l10.48218,-1.67715l-3.14465,-6.07966l3.56394,-0.20965l9.64361,3.14466l6.70859,-3.14466l6.49895,-7.33752l10.90146,12.78826z" fill-opacity="null" stroke-opacity="null" stroke-width="1.5" stroke="#000" fill="#00ff7f"/>
  <path id="svg_17" stroke-opacity="null" stroke-width="1.5" stroke="#000" fill="#3f7f00"/>
  <path id="svg_21" d="m461.782522,118.316661" opacity="0.5" fill-opacity="null" stroke-opacity="null" stroke-width="1.5" stroke="#000" fill="#3f7f00"/>
  <path opacity="0.39" id="svg_23" d="m414.00446,262.79248c0,0 -22.45217,-26.53439 -22.62227,-26.53439c0.1701,0 -18.71013,-14.28774 -18.88023,-14.28775c0.1701,0.00001 -22.28208,-16.32885 -22.45218,-16.32885c0.1701,0 -17.1793,-20.41106 -17.3494,-20.41106c0.1701,0 -1.36073,-15.3083 -1.53083,-15.3083c0.1701,0 9.35508,-12.24664 9.18498,-12.24664c0.1701,0 21.09144,-17.34941 20.92134,-17.34941c0.1701,0 31.29697,-18.36996 31.12688,-18.36996c0.17009,0 22.62227,-8.16443 22.45217,-8.16443c0.1701,0 17.00923,15.3083 16.83913,15.3083c0.1701,0 26.19421,28.5755 26.02411,28.5755c0.1701,0 2.2112,22.96245 2.0411,22.96245c0.1701,0 1.70093,22.45217 1.70093,22.45217c0,0 -4.08221,14.79802 -4.25231,14.79802c0.1701,0 -9.52516,23.47273 -9.69525,23.47273c0.17009,0 18.54005,16.32885 18.54005,19.39051c0,3.06166 -4.59249,18.88024 -4.76259,18.88024c0.1701,0 -29.93622,38.27075 -30.10632,38.27075c0.1701,0 -15.1382,2.04111 -15.3083,2.0411c0.1701,0.00001 -18.71014,1.02056 -18.88023,1.02056c0.17009,0 4.25231,-4.08221 4.08221,-4.08222c0.1701,0.00001 7.82425,0.00001 7.65415,0c0.1701,0.00001 -2.89156,-4.08221 -3.06166,-4.08221c0.1701,0 -10.03544,-3.06166 -10.20553,-3.06166c0.17009,0 5.27286,-3.06166 5.27286,-3.06166c0,0 7.14387,-1.02055 6.97378,-1.02055c0.17009,0 -6.97378,-4.59249 -7.14388,-4.59249c0.1701,0 4.76259,-0.51028 4.59249,-0.51028c0.1701,0 13.43729,2.04111 13.43729,2.04111c0,0 11.22609,-7.14387 11.05599,-7.14388c0.1701,0.00001 2.72148,-11.22608 2.55139,-11.22608c0.17009,0 -3.91212,-9.18498 -4.08222,-9.18498c0.1701,0 -8.5046,-10.71581 -8.6747,-10.71581" fill-opacity="null" stroke-opacity="null" stroke-width="1.5" stroke="#000" fill="#3f7f00"/>
  <path opacity="0.49" id="svg_24" d="m387.470078,237.788924c-39.291303,2.041107 -39.291303,2.041107 -39.461401,2.041103c0.170098,0.000003 -25.854012,-6.633593 -26.024109,-6.633596c0.170097,0.000003 -29.936226,-14.287743 -30.106323,-14.287746c0.170097,0.000003 -7.484053,-1.530827 -7.65415,-1.53083c0.170097,0.000003 -19.730693,-25.003554 -19.900789,-25.003556c0.170096,0.000002 -14.627927,-27.044661 -14.798023,-27.044663c0.170096,0.000002 -9.014884,-30.616598 -9.18498,-30.616599c0.170096,0.000002 13.437289,-7.654148 13.267193,-7.65415c0.170096,0.000001 9.355076,-8.674702 9.18498,-8.674703c0.170096,0.000001 0.170096,-10.205532 0,-10.205533c0.170096,0.000001 -4.422394,-5.102765 -4.59249,-5.102767c0.170096,0.000001 49.666932,-2.551382 49.496835,-2.551383c0.170097,0.000001 23.132547,-1.530829 22.962449,-1.53083c0.170097,0.000001 30.786697,-7.654149 30.616599,-7.65415c0.170098,0.000001 14.968121,2.041108 14.798023,2.041107c0.170098,0.000001 35.889464,17.859684 35.719366,17.859683c0.170099,0.000001 -8.504605,3.571938 -8.674703,3.571937c0.170099,0.000001 -13.607371,8.164428 -13.77747,8.164426c0.170098,0.000001 -7.994328,3.571938 -8.164426,3.571937c0.170098,0.000001 -28.915671,18.369961 -28.915671,18.369961c0,0 -22.96245,22.452173 -23.132547,22.452171c0.170097,0.000002 0.170097,10.715812 0,10.71581c0.170097,0.000002 3.742034,11.226089 3.571937,11.226086c0.170097,0.000002 10.885907,12.246642 10.71581,12.24664c0.170098,0.000003 11.396184,12.756919 11.226086,12.756916c0.170098,0.000003 9.865354,2.551386 9.695256,2.551383c0.170098,0.000003 7.824248,6.123323 7.65415,6.12332" stroke-opacity="null" stroke-width="1.5" stroke="#000" fill="#aaaaff"/>
  <path opacity="0.35" id="svg_25" d="m234.38708,230.13477c0,0 -6.12332,12.75692 -6.29342,12.75692c0.1701,0 -5.95322,-2.55138 -6.12332,-2.55139c0.1701,0.00001 4.25231,-10.20553 4.08222,-10.20553c0.17009,0 -7.99433,7.14388 -8.16443,7.14387c0.1701,0.00001 -10.54571,-3.06165 -10.71581,-3.06166c0.1701,0.00001 11.39618,-8.16442 11.22609,-8.16442c0.17009,0 -0.34018,-6.12332 -0.51028,-6.12332c0.1701,0 -3.91212,2.04111 -4.08221,2.0411c0.17009,0.00001 -12.07655,7.14388 -12.24664,7.14388c0.17009,0 6.80369,-17.34941 6.63359,-17.34941c0.1701,0 -12.58682,4.08222 -12.75691,4.08221c0.17009,0.00001 4.25231,-8.6747 4.08221,-8.6747c0.1701,0 -7.99433,-1.53083 -7.99433,-1.53083c0,0 -8.6747,-11.22608 -8.8448,-11.22609c0.1701,0.00001 -10.54571,-11.73636 -10.71581,-11.73636c0.1701,0 67.52662,-46.43517 67.35652,-46.43517c0.1701,0 9.35508,27.55494 9.18498,27.55494c0.1701,0 11.90646,20.41106 11.73636,20.41106c0.1701,0 11.90646,20.92135 11.73637,20.92134c0.17009,0.00001 5.78314,6.12333 5.61304,6.12332c0.1701,0.00001 -19.22042,12.75692 -19.39051,12.75692c0.17009,0 -15.64848,11.22609 -15.81858,11.22609c0.1701,0 -4.93267,-4.08221 -5.10277,-4.08222" stroke-opacity="null" stroke-width="1.5" stroke="#000" fill="#7f0000"/>
  <path id="svg_26" d="m237.44874,233.196434" opacity="0.5" stroke-opacity="null" stroke-width="1.5" stroke="#000" fill="#aaaaff"/>
  <path opacity="0.4" id="svg_31" d="m143.07459,96.87975c-16.43836,0.91324 -16.43836,0.91324 -16.59057,0.83714c0.15221,0.0761 -6.46879,3.27245 -6.62101,3.19635c0.15222,0.0761 -7.83865,10.57839 -7.99086,10.50229c0.15221,0.0761 -4.87062,8.75189 -5.02283,8.67579c0.15221,0.0761 -1.21766,4.87063 -1.36987,4.79452c0.15221,0.07611 1.9787,9.20853 1.82649,9.13242c0.15221,0.07611 1.97869,10.35008 1.82648,10.27398c0.15221,0.0761 4.49011,4.18569 4.3379,4.10959c0.15221,0.0761 11.33943,1.44596 11.18721,1.36986c0.15222,0.0761 -0.98934,5.55555 -1.14155,5.47945c0.15221,0.0761 7.91477,4.64231 7.76256,4.56621c0.15221,0.0761 6.31659,3.04414 6.16438,2.96804c0.15221,0.0761 8.5997,-0.15221 8.44749,-0.22831c0.15221,0.0761 -2.81582,-64.07915 -2.96804,-64.15525" stroke-opacity="null" stroke-width="1.5" stroke="#000" fill="#9b08cc"/>
  <path opacity="0.39" id="svg_32" d="m203.242712,84.714325c19.7149,5.01834 19.7149,5.01834 19.35645,4.89886c0.35845,0.11948 2.15071,-3.10659 1.79226,-3.22607c0.35845,0.11948 -2.86762,-6.69113 -3.22607,-6.8106c0.35845,0.11947 1.07535,-4.89887 0.7169,-5.01834c0.35845,0.11947 -6.8106,0.11947 -7.16905,0c0.35845,0.11947 -3.58453,5.13781 -3.94298,5.01834" stroke-opacity="null" stroke-width="1.5" stroke="#000" fill="#00007f"/>
  <path id="svg_33" stroke-opacity="null" stroke-width="1.5" stroke="#000" fill="#ffff00"/>
  <path id="svg_36" stroke-opacity="null" stroke-width="1.5" stroke="#000" fill="#ffff00"/>
  <path opacity="0.4" id="svg_37" d="m145.435825,164.290839c0,0 -2.150717,-66.672211 -2.509168,-66.791689c0.358451,0.119478 37.637537,-12.784821 37.279086,-12.904299c0.358451,0.119478 24.374785,1.553289 24.016334,1.433811c0.358451,0.119478 32.977651,10.156155 32.6192,10.036677c0.358451,0.119478 18.639541,8.722344 18.28109,8.602866c0.358451,0.119478 6.810601,11.589966 6.45215,11.470488c0.358451,0.119478 -8.961321,8.722344 -9.319772,8.602866c0.358451,0.119478 -17.205733,13.023777 -17.564184,12.904299c0.358451,0.119478 -60.936969,43.49226 -61.295421,43.372783c0.358452,0.119477 -24.374788,-15.293991 -24.733239,-15.413468" stroke-opacity="null" stroke-width="1.5" stroke="#000" fill="#007f00"/>
  <path opacity="0.4" id="svg_38" d="m186.695527,122.883052c0,0 4.064489,8.128978 4.064489,8.128978c0,0 13.412814,-4.064489 13.412814,-4.064489c0,0 2.032244,-4.877387 1.896758,-5.012873c0.135486,0.135486 11.516056,6.638668 11.380569,6.503182c0.135487,0.135486 -3.929002,-10.025736 -4.064489,-10.161222c0.135487,0.135486 -6.367696,-3.522554 -6.367696,-3.522554c0,0 -12.599916,-0.812898 -12.735402,-0.948384c0.135486,0.135486 -7.587043,0.948384 -7.722529,0.812898c0.135486,0.135486 0.948384,5.012873 0.812898,4.877386" stroke-opacity="null" stroke-width="1.5" stroke="#000" fill="#ff0000"/>
  <path opacity="0.4" id="svg_39" d="m240.753231,131.418479l12.464428,-10.296709l6.503182,-2.032244l-1.625796,-5.283836l-5.283836,-6.096733l-8.535427,0l-8.941876,2.032244l-7.722529,4.470938l13.141852,17.20634z" stroke-opacity="null" stroke-width="1.5" stroke="#000" fill="#00007f"/>
 </g>
</svg>